<?xml version="1.0" standalone="no"?>
<!DOCTYPE svg PUBLIC "-//W3C//DTD SVG 20010904//EN"
 "http://www.w3.org/TR/2001/REC-SVG-20010904/DTD/svg10.dtd">
<svg version="1.0" xmlns="http://www.w3.org/2000/svg"
 width="512.000000pt" height="512.000000pt" viewBox="0 0 512.000000 512.000000"
 preserveAspectRatio="xMidYMid meet">

<g transform="translate(0.000000,512.000000) scale(0.100000,-0.100000)"
fill="#000000" stroke="none">
<path d="M2310 5105 c-423 -47 -757 -188 -905 -382 -109 -142 -174 -377 -200
-722 -7 -103 -21 -213 -30 -245 -8 -33 -44 -159 -79 -280 -116 -400 -143 -560
-133 -786 22 -493 240 -848 600 -975 42 -15 77 -33 77 -41 0 -7 -7 -121 -15
-253 -9 -132 -17 -365 -18 -518 -2 -307 3 -346 63 -468 136 -278 527 -454 960
-432 469 24 802 243 876 574 15 69 16 115 10 413 -4 184 -12 417 -19 517 l-12
182 75 27 c357 126 575 482 597 974 10 226 -17 386 -133 786 -35 121 -71 247
-79 280 -9 32 -23 142 -30 245 -26 345 -91 580 -200 722 -213 279 -829 446
-1405 382z m570 -170 c389 -60 660 -196 753 -381 64 -126 111 -346 122 -569 8
-167 13 -193 95 -480 132 -461 145 -529 145 -755 -1 -153 -4 -189 -27 -287
-59 -252 -156 -415 -305 -517 -59 -40 -182 -100 -190 -92 -2 1 -10 65 -18 142
-53 487 -139 961 -280 1554 -31 129 -62 245 -71 257 -34 53 -80 41 -199 -52
-85 -67 -204 -129 -280 -146 -120 -27 -260 31 -468 193 -52 40 -71 45 -111 27
-33 -15 -37 -28 -96 -279 -143 -608 -232 -1102 -283 -1580 -14 -135 -7 -131
-135 -68 -189 93 -312 274 -380 561 -23 99 -26 132 -26 292 0 229 15 308 148
765 73 248 82 296 90 455 12 230 51 418 115 560 102 223 413 366 916 419 80 8
383 -4 485 -19z m-547 -1435 c77 -36 167 -60 227 -60 100 0 258 59 376 141 24
16 47 29 52 29 9 0 110 -424 162 -685 127 -629 193 -1252 207 -1946 6 -312 5
-328 -15 -395 -35 -116 -102 -201 -215 -275 -65 -42 -183 -94 -239 -104 l-36
-7 -66 135 c-95 194 -163 249 -268 218 -64 -19 -110 -76 -179 -220 -45 -92
-69 -131 -81 -131 -38 0 -193 65 -261 109 -127 83 -206 199 -226 331 -11 71 0
607 19 885 40 616 124 1162 284 1849 31 132 56 241 56 243 0 1 32 -18 70 -43
39 -25 98 -58 133 -74z m300 -3217 c40 -85 47 -107 36 -114 -17 -11 -199 -12
-215 -1 -8 5 2 36 32 101 47 101 71 134 87 124 5 -3 32 -53 60 -110z"/>
<path d="M1507 4140 c-43 -34 -61 -101 -61 -220 0 -119 18 -186 61 -220 51
-40 112 -19 145 49 20 40 23 61 23 171 0 110 -3 131 -23 171 -33 68 -94 89
-145 49z"/>
<path d="M3507 4140 c-43 -34 -61 -101 -61 -220 0 -119 18 -186 61 -220 51
-40 112 -19 145 49 20 40 23 61 23 171 0 110 -3 131 -23 171 -33 68 -94 89
-145 49z"/>
<path d="M2193 2936 c-26 -22 -28 -30 -28 -96 0 -66 2 -74 28 -96 36 -31 71
-31 102 1 22 21 25 33 25 95 0 62 -3 74 -25 95 -31 32 -66 32 -102 1z"/>
<path d="M2833 2936 c-26 -22 -28 -30 -28 -96 0 -66 2 -74 28 -96 36 -31 71
-31 102 1 22 21 25 33 25 95 0 62 -3 74 -25 95 -31 32 -66 32 -102 1z"/>
</g>
</svg>
